<?xml version="1.0" encoding="UTF-8"?>
<svg width="40" height="40" viewBox="0 0 40 40" fill="none" xmlns="http://www.w3.org/2000/svg">
    <rect width="40" height="40" rx="8" fill="white"/>
    <path d="M20 8C13.3726 8 8 13.3726 8 20C8 26.6274 13.3726 32 20 32C26.6274 32 32 26.6274 32 20C32 13.3726 26.6274 8 20 8ZM20 12C22.2091 12 24 13.7909 24 16C24 18.2091 22.2091 20 20 20C17.7909 20 16 18.2091 16 16C16 13.7909 17.7909 12 20 12ZM20 30C16.6863 30 13.6863 28.8284 11.3137 26.4853C13.6863 24.1421 16.6863 23 20 23C23.3137 23 26.3137 24.1421 28.6863 26.4853C26.3137 28.8284 23.3137 30 20 30Z" fill="#dd3859"/>
</svg>
